<svg width="32" height="33" viewBox="0 0 32 33" fill="none" xmlns="http://www.w3.org/2000/svg">
<rect y="0.5" width="32" height="32" rx="16" fill="#3AC369"/>
<path d="M15.0405 14.3679C15.0405 15.0583 14.4809 15.6179 13.7905 15.6179C13.1002 15.6179 12.5405 15.0583 12.5405 14.3679C12.5405 13.6776 13.1002 13.1179 13.7905 13.1179C14.4809 13.1179 15.0405 13.6776 15.0405 14.3679Z" fill="white"/>
<path d="M18.0405 15.6179C18.7309 15.6179 19.2905 15.0583 19.2905 14.3679C19.2905 13.6776 18.7309 13.1179 18.0405 13.1179C17.3502 13.1179 16.7905 13.6776 16.7905 14.3679C16.7905 15.0583 17.3502 15.6179 18.0405 15.6179Z" fill="white"/>
<path fill-rule="evenodd" clip-rule="evenodd" d="M15.9155 6.99994C12.0495 6.99994 8.91553 10.1339 8.91553 13.9999V18.5237C8.91553 19.339 9.57644 19.9999 10.3917 19.9999H11.0829C11.1 20.8592 10.7949 22.4374 9.15629 24.3492C8.79687 24.7685 8.84543 25.3998 9.26475 25.7592C9.68408 26.1186 10.3154 26.0701 10.6748 25.6508C12.535 23.4806 13.1037 21.4417 13.0854 19.9999H14.9155V24.9999C14.9155 25.5522 15.3632 25.9999 15.9155 25.9999C16.4678 25.9999 16.9155 25.5522 16.9155 24.9999V19.9999H18.9149C18.8965 21.4417 19.4653 23.4806 21.3254 25.6508C21.6849 26.0701 22.3162 26.1186 22.7355 25.7592C23.1548 25.3998 23.2034 24.7685 22.844 24.3492C21.2053 22.4374 20.9002 20.8592 20.9174 19.9999H21.4393C22.2546 19.9999 22.9155 19.339 22.9155 18.5237V13.9999C22.9155 10.1339 19.7815 6.99994 15.9155 6.99994ZM20.107 17.9999H20.4155C20.6917 17.9999 20.9155 17.7761 20.9155 17.4999V13.9999C20.9155 11.2385 18.677 8.99994 15.9155 8.99994C13.1541 8.99994 10.9155 11.2385 10.9155 13.9999V17.4999C10.9155 17.7761 11.1394 17.9999 11.4155 17.9999H11.8932C11.9079 17.9996 11.9226 17.9996 11.9372 17.9999H20.063C20.0776 17.9996 20.0923 17.9996 20.107 17.9999Z" fill="white"/>
</svg>
